<mxfile host="app.diagrams.net" modified="2021-06-12T08:41:20.886Z" agent="5.0 (Windows)" etag="TWorSKCCQXiTna8e4rYh" version="13.9.3" type="github">
  <diagram id="bVzuc31K8iS64rbpnQ28" name="Page-1">
    <mxGraphModel dx="2062" dy="1112" grid="1" gridSize="10" guides="1" tooltips="1" connect="1" arrows="1" fold="1" page="1" pageScale="1" pageWidth="827" pageHeight="1169" math="0" shadow="0">
      <root>
        <mxCell id="0" />
        <mxCell id="1" parent="0" />
        <mxCell id="WUazK811xeZZ3d2g1wh1-1" value="&lt;div&gt;test\&lt;/div&gt;" style="rounded=1;whiteSpace=wrap;html=1;" vertex="1" parent="1">
          <mxGeometry x="270" y="350" width="120" height="60" as="geometry" />
        </mxCell>
        <mxCell id="WUazK811xeZZ3d2g1wh1-2" value="Text" style="text;html=1;strokeColor=none;fillColor=none;align=center;verticalAlign=middle;whiteSpace=wrap;rounded=0;" vertex="1" parent="1">
          <mxGeometry x="390" y="550" width="40" height="20" as="geometry" />
        </mxCell>
        <mxCell id="WUazK811xeZZ3d2g1wh1-3" value="" style="rounded=1;whiteSpace=wrap;html=1;" vertex="1" parent="1">
          <mxGeometry x="260" y="550" width="120" height="60" as="geometry" />
        </mxCell>
      </root>
    </mxGraphModel>
  </diagram>
</mxfile>
